<?xml version="1.0" encoding="UTF-8" standalone="no"?>
<!DOCTYPE svg PUBLIC "-//W3C//DTD SVG 1.1//EN" "http://www.w3.org/Graphics/SVG/1.1/DTD/svg11.dtd">
<svg width="100%" height="100%" viewBox="0 0 40 40" version="1.1" xmlns="http://www.w3.org/2000/svg" xmlns:xlink="http://www.w3.org/1999/xlink" xml:space="preserve" xmlns:serif="http://www.serif.com/" style="fill-rule:evenodd;clip-rule:evenodd;stroke-linejoin:round;stroke-miterlimit:2;">
    <g transform="matrix(0.328813,-4.26033e-17,-3.79256e-17,-0.327486,11.4425,159.507)">
        <g id="Back">
            <path d="M36.274,377.974C35.162,376.862 33.434,376.858 32.317,377.964C28.548,381.697 20.344,389.823 16.048,394.078C15.336,394.783 14.929,395.772 14.925,396.808C14.92,397.845 15.318,398.837 16.024,399.55C20.306,403.873 28.515,412.16 32.299,415.98C33.423,417.114 35.181,417.119 36.31,415.99C36.312,415.988 36.313,415.987 36.314,415.986C36.83,415.47 37.124,414.75 37.126,413.996C37.128,413.242 36.838,412.521 36.325,412.002C33.291,408.932 27.473,403.045 24.035,399.567C23.326,398.85 22.927,397.852 22.933,396.81C22.939,395.769 23.348,394.776 24.065,394.068C27.483,390.689 33.222,385.018 36.264,382.012C36.79,381.492 37.091,380.762 37.093,379.996C37.095,379.231 36.799,378.499 36.275,377.975L36.274,377.974Z" style="fill:rgb(0,173,248);fill-rule:nonzero;"/>
        </g>
    </g>
</svg>
